<svg xmlns="http://www.w3.org/2000/svg" width="48" height="48" viewBox="0 0 48 48"><path d="M0 0h48v48H0z" fill="none"/><path d="M5 22.4h24.2v17.2c-5.376.04-5.376.04-7.671.049q-2.348.007-4.694.027-1.892.016-3.785.019-.722.003-1.443.011a176 176 0 0 1-2.024.008l-.6.011c-1.295-.01-2.214-.233-3.183-1.125-.751-.894-.899-1.767-.891-2.918v-.445q.003-.706.013-1.412l.003-.877q.008-1.618.026-3.236z" fill="#24a599"/><path d="M20 28.8h.4c.289.343.561.7.825 1.063l.243.33A174 174 0 0 1 22.2 31.2l.788 1.088.387.535a100 100 0 0 0 1.796 2.347c.629.809.629.809.629 1.03H8.4c.747-1.121 1.48-2.2 2.313-3.25l.276-.355A19 19 0 0 1 12.8 30.6a560 560 0 0 1 1.6 1.8l.373.417c.827.937.827.937.827 1.383h.4l.155-.344c.272-.507.591-.912.957-1.356a87 87 0 0 0 2.331-3.026C19.8 29 19.8 29 20 28.8" fill="#f7fafa"/><path d="M32.6 36.2h3.6v3.4h-3.6zm0-27.8h3.6v3.4h-3.6zm-20.8 0h3.6v3.4h-3.6z" fill="#29a79c"/><path d="M39.6 29.2H43v3.4h-3.4zm0-13.8H43v3.4h-3.4zM5 15.4h3.4v3.4H5z" fill="#24a69a"/><path d="M25.8 8.4h3.4v3.4h-3.4zm-7 0h3.4v3.4h-3.4z" fill="#22a599"/><path d="M39.6 22.4H43v3.2h-3.4z" fill="#1fa599"/><path d="M39.6 36.2H43c-.207 1.449-.375 1.88-1.4 2.8-.763.473-1.095.6-2 .6zM8.4 8.4v3.4H5c.176-1.43.496-2.041 1.625-2.937.699-.489.823-.463 1.775-.463" fill="#24a69a"/><path d="M39.6 8.4c1.482.212 2.096.451 3 1.6.238.618.318 1.135.4 1.8h-3.4z" fill="#23a69a"/></svg>